<svg version="1.1" xmlns="http://www.w3.org/2000/svg" viewBox="0 0 80.131 80.131">
<defs>
    <clipPath id="e">
        <path d="m14.429 128c0-62.724 50.847-113.57 113.57-113.57 62.723 0 113.57 50.847 113.57 113.57 0 62.723-50.849 113.57-113.57 113.57-62.724 0-113.57-50.849-113.57-113.57"/>
    </clipPath>
    <linearGradient id="b" x2="1" gradientTransform="matrix(0 -227.14 -227.14 0 128 241.57)" gradientUnits="userSpaceOnUse">
        <stop stop-color="#fff" offset="0"/>
        <stop stop-color="#231f20" offset="1"/>
    </linearGradient>
    <clipPath id="d">
        <path d="m24.875 128c0-56.954 46.171-103.12 103.12-103.12s103.12 46.171 103.12 103.12-46.171 103.12-103.12 103.12-103.12-46.17-103.12-103.12"/>
    </clipPath>
    <linearGradient id="c" x2="1" gradientTransform="matrix(0 206.25 206.25 0 128 24.875)" gradientUnits="userSpaceOnUse">
        <stop stop-color="#fff" offset="0"/>
        <stop stop-color="#231f20" offset="1"/>
    </linearGradient>
    <clipPath id="g">
        <path d="m30.695 128c0-53.739 43.565-97.305 97.305-97.305s97.305 43.566 97.305 97.305c0 53.74-43.565 97.304-97.305 97.304s-97.305-43.564-97.305-97.304"/>
    </clipPath>
    <radialGradient id="a" cx="0" cy="0" r="1" gradientTransform="matrix(97.304 0 0 -97.304 128 128)" gradientUnits="userSpaceOnUse">
        <stop stop-color="#32e72d" offset="0"/>
        <stop stop-color="#3bc638" offset="1"/>
    </radialGradient>
    <clipPath id="f">
        <path d="m0 256h256v-256h-256z"/>
    </clipPath>
</defs>

<g transform="translate(-58.696 -66.359)">
    <g transform="matrix(.35278 0 0 -.35278 53.606 151.58)">
        <g>
            <g clip-path="url(#e)">
                <path d="m14.429 128c0-62.724 50.847-113.57 113.57-113.57 62.723 0 113.57 50.847 113.57 113.57 0 62.723-50.849 113.57-113.57 113.57-62.724 0-113.57-50.849-113.57-113.57" fill="url(#b)"/>
            </g>
        </g>
        <g>
            <g clip-path="url(#d)">
                <path d="m24.875 128c0-56.954 46.171-103.12 103.12-103.12s103.12 46.171 103.12 103.12-46.171 103.12-103.12 103.12-103.12-46.17-103.12-103.12" fill="url(#c)"/>
            </g>
        </g>
        <g>
            <g clip-path="url(#g)">
                <path d="m30.695 128c0-53.739 43.565-97.305 97.305-97.305s97.305 43.566 97.305 97.305c0 53.74-43.565 97.304-97.305 97.304s-97.305-43.564-97.305-97.304" fill="url(#a)"/>
            </g>
        </g>
        <g>
            <g clip-path="url(#f)">
                <path d="m147.96 188.29h-40.071v-13.991h40.071z"/>
                <path d="m147.96 166.24h-40.071v-13.991h40.071z"/>
                <g transform="translate(147.96 121.81)">
                    <path d="m0 0v22.386h-40.071v-22.386h-29.288l24.662-25.072 24.661-25.073 49.324 50.145z"/>
                </g>
            </g>
        </g>
    </g>
</g>
</svg>
