<svg xmlns="http://www.w3.org/2000/svg" width="800" height="129.039"><defs><clipPath clipPathUnits="userSpaceOnUse" id="a"><path style="fill:#e57000;fill-opacity:1;fill-rule:evenodd;stroke:none" transform="matrix(.7345 .67862 -.78497 .61953 0 0)" d="M-83-347.714h436.402v326.41H-83z"/></clipPath></defs><g style="fill:#000"><g style="font-size:144px;font-style:normal;font-variant:normal;font-weight:400;font-stretch:normal;line-height:125%;letter-spacing:0;word-spacing:0;fill:#000;fill-opacity:1;stroke:none;font-family:Helion;-inkscape-font-specification:Helion" clip-path="url(#a)" transform="matrix(-.23853 0 0 .23853 139.53 6.637)"><path d="M276.304 226.623 466.892 17.021C459.5 9.628 450.888 3.819 441.058-.405c-9.83-4.225-20.392-6.377-31.684-6.459-11.993.092-22.98 2.468-32.963 7.129-9.982 4.661-18.655 11.059-26.017 19.193l-74.09 80.915L202.7 19.458c-7.627-8.134-16.502-14.532-26.627-19.193-10.124-4.661-21.071-7.037-32.84-7.129-11.293.082-21.854 2.234-31.684 6.459-9.83 4.224-18.442 10.033-25.835 17.426l190.594 209.597" style="fill:#000;fill-opacity:1"/></g><g transform="matrix(.23853 0 0 -.23853 7.714 122.402)" clip-path="url(#a)" style="font-size:144px;font-style:normal;font-variant:normal;font-weight:400;font-stretch:normal;line-height:125%;letter-spacing:0;word-spacing:0;fill:#000;fill-opacity:1;stroke:none;font-family:Helion;-inkscape-font-specification:Helion"><path style="fill:#000;fill-opacity:1" d="M276.304 226.623 466.892 17.021C459.5 9.628 450.888 3.819 441.058-.405c-9.83-4.225-20.392-6.377-31.684-6.459-11.993.092-22.98 2.468-32.963 7.129-9.982 4.661-18.655 11.059-26.017 19.193l-74.09 80.915L202.7 19.458c-7.627-8.134-16.502-14.532-26.627-19.193-10.124-4.661-21.071-7.037-32.84-7.129-11.293.082-21.854 2.234-31.684 6.459-9.83 4.224-18.442 10.033-25.835 17.426l190.594 209.597"/></g><path style="font-size:1059.61279297px;font-style:normal;font-variant:normal;font-weight:400;font-stretch:normal;line-height:125%;letter-spacing:0;word-spacing:0;fill:#e57000;fill-opacity:1;stroke:none;font-family:Helion;-inkscape-font-specification:Helion" d="m1160.63 988.205-143.267-157.112c-8.333-8.887-18.03-15.877-29.093-20.97-11.063-5.093-23.024-7.69-35.884-7.79-12.338.09-23.877 2.442-34.618 7.057-10.74 4.616-20.15 10.963-28.227 19.04l145.397 159.778-145.397 159.777c8.077 8.333 17.486 14.835 28.227 19.507 10.74 4.67 22.28 7.045 34.618 7.123 12.894-.1 24.921-2.696 36.084-7.79 11.162-5.092 20.793-12.082 28.893-20.97l143.266-157.65M1192.62 988.205l143.267-157.112c8.333-8.887 18.03-15.877 29.093-20.97 11.063-5.093 23.024-7.69 35.883-7.79 12.339.09 23.878 2.442 34.619 7.057 10.74 4.616 20.15 10.963 28.227 19.04l-145.397 159.778 145.397 159.777c-8.077 8.333-17.486 14.835-28.227 19.507-10.74 4.67-22.28 7.045-34.618 7.123-12.894-.1-24.921-2.696-36.084-7.79-11.162-5.092-20.793-12.082-28.893-20.97l-143.266-157.65" transform="translate(-207.627 -171.69) scale(.23903)"/></g><g style="font-size:387.52206421px;font-style:normal;font-variant:normal;font-weight:400;font-stretch:normal;text-align:start;line-height:125%;letter-spacing:0;word-spacing:0;writing-mode:lr-tb;text-anchor:start;fill:#000;fill-opacity:1;stroke:none;font-family:Helion;-inkscape-font-specification:Helion"><path d="M217.99 26.648h-49.85c-1.958.054-3.61.76-4.956 2.118-1.346 1.358-2.047 3.041-2.104 5.05v68.858c5.349-.134 9.802-1.985 13.359-5.553 3.557-3.568 5.403-8.053 5.539-13.454h38.013c5.405-.133 9.908-1.984 13.508-5.552 3.6-3.568 5.469-8.053 5.607-13.454V45.763c-.138-5.405-2.007-9.908-5.607-13.508-3.6-3.6-8.103-5.469-13.508-5.607zM179.979 67.05V45.763h33.343c.194-.097.973.097 2.335.584 1.362.486 2.14 1.849 2.335 4.086v11.839c.097.199-.098.995-.584 2.389-.486 1.394-1.849 2.19-4.086 2.39zM323.97 59.99V45.764c-.134-5.405-1.985-9.908-5.553-13.508-3.568-3.6-8.053-5.469-13.454-5.607h-49.85c-2.005.054-3.67.76-4.997 2.118-1.326 1.358-2.014 3.041-2.063 5.05v68.858c5.353-.134 9.824-1.985 13.413-5.553 3.588-3.568 5.453-8.053 5.593-13.454V78.89h21.613l10.97 15.64c1.76 2.524 3.968 4.506 6.625 5.946 2.656 1.439 5.625 2.172 8.906 2.199a19.157 19.157 0 0 0 4.602-.557 17.792 17.792 0 0 0 4.195-1.615l-15.314-21.83c4.44-.962 8.078-3.139 10.915-6.53 2.838-3.392 4.304-7.443 4.399-12.151zm-56.91 2.282V45.763h33.125c.199-.097.995.097 2.39.584 1.393.486 2.19 1.849 2.388 4.086v7.168c.1.195-.1.973-.597 2.335-.498 1.363-1.892 2.141-4.181 2.336zM391.724 26.648H353.82c-5.401.138-9.886 2.007-13.454 5.607-3.568 3.6-5.42 8.103-5.553 13.508v37.904c.134 5.401 1.985 9.886 5.553 13.454 3.568 3.568 8.053 5.42 13.454 5.553h37.904c5.4-.134 9.886-1.985 13.454-5.553 3.568-3.568 5.419-8.053 5.552-13.454V45.763c-.133-5.405-1.984-9.908-5.552-13.508-3.568-3.6-8.053-5.469-13.454-5.607zm0 52.24c.1.2-.1.996-.597 2.39-.498 1.394-1.892 2.19-4.182 2.39h-28.347c-.199.099-.995-.1-2.389-.598-1.394-.498-2.19-1.892-2.39-4.181V50.433c-.099-.194.1-.973.598-2.335s1.892-2.14 4.181-2.335h28.347c.2-.097.996.097 2.39.584 1.393.486 2.19 1.849 2.389 4.086z"/><path style="fill:#e57000;fill-opacity:1" d="M343.246-243.012c-5.878-5.877-12.724-10.495-20.539-13.853-7.815-3.358-16.211-5.07-25.188-5.135-9.551.073-18.351 1.962-26.4 5.668-8.05 3.705-15.008 8.792-20.877 15.258l-58.515 64.328-58.903-64.328c-6.023-6.636-12.966-11.77-20.829-15.404-7.863-3.632-16.55-5.473-26.06-5.522-8.978.065-17.374 1.777-25.19 5.135-7.814 3.358-14.66 7.976-20.538 13.853L146-126.756 40.207-10.501C46.085-4.438 52.931.293 60.746 3.692 68.56 7.09 76.957 8.818 85.934 8.875c9.382-.073 18.133-1.962 26.255-5.668 8.121-3.705 15.129-8.792 21.023-15.258l58.515-64.328 58.515 64.328C256.11-5.585 263.07-.498 271.119 3.207c8.049 3.706 16.849 5.595 26.4 5.668 8.977-.057 17.373-1.785 25.188-5.183 7.815-3.4 14.661-8.13 20.539-14.193L237.454-126.756z" transform="matrix(.28027 0 0 .28027 410.305 100.187)"/><path d="M605.32 26.648h-11.947c-3.908.054-7.388 1.113-10.44 3.177-3.052 2.063-5.365 4.806-6.937 8.227l.108-.217-11.186 24.545-11.078-24.545v.217c-1.526-3.421-3.824-6.164-6.897-8.227-3.073-2.064-6.566-3.123-10.48-3.177h-11.84c-2.056.054-3.753.76-5.09 2.118-1.337 1.358-2.03 3.041-2.077 5.05v68.858c5.353-.134 9.824-1.985 13.413-5.553 3.588-3.568 5.453-8.053 5.593-13.454V47.284c.007-.496.156-.89.448-1.182.292-.291.686-.44 1.181-.448.283.01.56.1.828.272.27.172.464.371.584.597l21.07 46.485c.398.83.987 1.504 1.765 2.023a4.704 4.704 0 0 0 2.58.8 4.71 4.71 0 0 0 2.538-.746 5.262 5.262 0 0 0 1.806-1.969l21.07-46.593c.165-.226.378-.425.638-.597a1.65 1.65 0 0 1 .882-.272c.444.007.806.157 1.087.448.28.292.425.686.434 1.182v36.383c.14 5.401 2.005 9.886 5.593 13.454 3.589 3.568 8.06 5.42 13.413 5.553V33.816c-.05-2.009-.737-3.692-2.063-5.05-1.326-1.358-2.991-2.064-4.996-2.118zM680.219 26.648h-37.905c-5.4.138-9.885 2.007-13.454 5.607-3.568 3.6-5.419 8.103-5.552 13.508v37.904c.133 5.401 1.984 9.886 5.552 13.454 3.569 3.568 8.053 5.42 13.454 5.553h37.905c5.4-.134 9.885-1.985 13.453-5.553 3.569-3.568 5.42-8.053 5.553-13.454V45.763c-.134-5.405-1.984-9.908-5.553-13.508-3.568-3.6-8.052-5.469-13.453-5.607zm0 52.24c.1.2-.1.996-.598 2.39-.498 1.394-1.891 2.19-4.181 2.39h-28.347c-.2.099-.996-.1-2.39-.598-1.393-.498-2.19-1.892-2.389-4.181V50.433c-.1-.194.1-.973.598-2.335.497-1.362 1.891-2.14 4.181-2.335h28.347c.199-.097.995.097 2.39.584 1.393.486 2.19 1.849 2.389 4.086z"/><path style="fill:#e57000;fill-opacity:1" d="M1372.601-243.012c-5.877-5.877-12.724-10.495-20.538-13.853-7.815-3.358-16.211-5.07-25.189-5.135-9.55.073-18.35 1.962-26.4 5.668-8.049 3.705-15.008 8.792-20.877 15.258l-58.515 64.328-58.903-64.328c-6.022-6.636-12.965-11.77-20.828-15.404-7.864-3.632-16.55-5.473-26.061-5.522-8.978.065-17.374 1.777-25.189 5.135-7.815 3.358-14.66 7.976-20.538 13.853l105.792 116.256-105.792 116.255c5.877 6.063 12.723 10.794 20.538 14.193 7.815 3.398 16.211 5.126 25.189 5.183 9.381-.073 18.133-1.962 26.254-5.668 8.122-3.705 15.13-8.792 21.023-15.258l58.515-64.328 58.515 64.328c5.87 6.466 12.828 11.553 20.878 15.258 8.049 3.706 16.848 5.595 26.4 5.668 8.977-.057 17.373-1.785 25.188-5.183 7.815-3.4 14.66-8.13 20.538-14.193L1266.81-126.756z" transform="matrix(.28027 0 0 .28027 410.305 100.187)"/></g></svg>